<?xml version="1.0" encoding="iso-8859-1"?>
<!-- Generator: Adobe Illustrator 19.0.0, SVG Export Plug-In . SVG Version: 6.00 Build 0)  -->
<svg version="1.1" id="Layer_1" xmlns="http://www.w3.org/2000/svg" xmlns:xlink="http://www.w3.org/1999/xlink" x="0px" y="0px"
	 viewBox="0 0 512 512" style="enable-background:new 0 0 512 512;" xml:space="preserve">
<polygon style="fill:#FF7B78;" points="256,471.817 213.719,511.125 186.493,460.218 133.74,483.668 124.519,426.679 67.01,431.73 
	76.792,374.834 20.759,360.938 48.486,310.302 0,278.965 42.667,240.074 6.983,194.693 59.966,171.763 40.951,117.254 
	98.508,112.77 98.222,55.039 154.117,69.488 172.593,14.792 220.766,46.607 256,0.875 291.234,46.607 339.409,14.792 
	357.883,69.488 413.778,55.039 413.493,112.77 471.049,117.254 452.035,171.763 505.017,194.693 469.333,240.074 512,278.965 
	463.515,310.302 491.241,360.938 435.208,374.834 444.992,431.73 387.481,426.679 378.26,483.668 325.507,460.218 298.281,511.125 
	"/>
<circle style="fill:#FFD77A;" cx="256.002" cy="255.776" r="218.951"/>
<path style="opacity:0.1;enable-background:new    ;" d="M90.96,255.779c0-111.798,83.791-204.017,191.998-217.303
	c-8.835-1.085-17.83-1.653-26.958-1.653c-120.926,0-218.956,98.03-218.956,218.956c0,120.926,98.029,218.956,218.956,218.956
	c9.128,0,18.123-0.568,26.958-1.653C174.751,459.796,90.96,367.577,90.96,255.779z"/>
<g>
	<circle style="fill:#2D2C33;" cx="167.343" cy="252.196" r="16.362"/>
	<circle style="fill:#2D2C33;" cx="344.661" cy="252.196" r="16.362"/>
	<path style="fill:#2D2C33;" d="M316.401,301.728c-6.128-14.169-22.55-20.713-36.731-14.661c-2.224,0.798-10.796,2.407-23.67,2.407
		c-12.876,0-21.45-1.609-23.673-2.408c-14.182-6.043-30.601,0.498-36.728,14.668c-4.926,11.397-1.69,24.26,7.111,32.08l53.29-3.698
		l53.289,3.698C318.094,325.992,321.33,313.126,316.401,301.728z"/>
</g>
<path style="fill:#FF7B78;" d="M256.001,345.547c11.095,0,31.797-0.904,45.795-6.957c2.813-1.217,5.321-2.845,7.494-4.776
	c-8.621-11.223-29.228-19.127-53.289-19.127s-44.668,7.904-53.289,19.128c2.175,1.932,4.684,3.562,7.501,4.779
	C224.211,344.644,244.908,345.547,256.001,345.547z"/>
<path style="opacity:0.1;enable-background:new    ;" d="M276.398,316.683c-6.342-1.288-13.214-1.997-20.398-1.997
	c-24.061,0-44.668,7.904-53.289,19.128c2.175,1.932,4.684,3.562,7.501,4.779c3.444,1.488,7.295,2.662,11.306,3.591
	C232.079,329.984,252.026,320.597,276.398,316.683z"/>
<g>
</g>
<g>
</g>
<g>
</g>
<g>
</g>
<g>
</g>
<g>
</g>
<g>
</g>
<g>
</g>
<g>
</g>
<g>
</g>
<g>
</g>
<g>
</g>
<g>
</g>
<g>
</g>
<g>
</g>
</svg>
